<svg width="142" height="75" viewBox="0 0 142 75" fill="none" xmlns="http://www.w3.org/2000/svg">
<rect width="142" height="75" fill="white"/>
<path d="M26.8805 22.6055H41.7047C47.9156 22.6055 52.7594 24.0898 56.2359 27.0586C59.7125 29.9883 61.4508 34.1094 61.4508 39.4219C61.4508 42.8594 60.6305 45.9062 58.9898 48.5625C57.3883 51.1797 55.1422 53.25 52.2516 54.7734C49.4 56.2578 46.0992 57 42.3492 57H26.8805L26.7047 54.5391L30.3375 53.7188C30.4547 53.3672 30.5328 52.3711 30.5719 50.7305C30.65 49.0508 30.6891 47.1172 30.6891 44.9297V34.7344C30.6891 32.3516 30.65 30.3594 30.5719 28.7578C30.5328 27.1172 30.4547 26.1602 30.3375 25.8867L26.7047 25.0664L26.8805 22.6055ZM36.7242 26.0039C36.7242 26.3164 36.7047 26.8047 36.6656 27.4688C36.6656 28.1328 36.6461 29.0508 36.607 30.2227C36.607 31.3555 36.607 32.8594 36.607 34.7344V44.9297C36.607 46.0625 36.607 47.1562 36.607 48.2109C36.6461 49.2656 36.6852 50.2227 36.7242 51.082C36.8023 51.9414 36.8609 52.6445 36.9 53.1914C38.0328 53.3477 39.068 53.4844 40.0055 53.6016C40.982 53.6797 41.9195 53.7188 42.818 53.7188C46.6852 53.7188 49.6148 52.6641 51.607 50.5547C53.6383 48.4453 54.6539 45.3008 54.6539 41.1211C54.6539 38.543 54.3414 36.2773 53.7164 34.3242C53.0914 32.3711 52.1734 30.75 50.9625 29.4609C49.7906 28.1719 48.3648 27.2148 46.6852 26.5898C45.0445 25.9258 43.1695 25.5938 41.0602 25.5938C40.3961 25.5938 39.693 25.6328 38.9508 25.7109C38.2477 25.75 37.5055 25.8477 36.7242 26.0039ZM89.9297 32.0391L79.6758 57.1758H76.9805L64.4414 25.8867L61.5117 25.0664L61.6289 22.6055H74.1094L74.2852 25.0664L71.2969 25.8867L80.7891 50.6133H79.0312L87.9961 27.2344L89.9297 32.0391ZM98.3086 57.1758L85.8281 25.8867L82.8398 25.0664L83.0156 22.6055H95.9062L96.082 25.0664L92.5078 25.8867L102 50.6133H100.359L109.441 25.8867L105.34 25.0664L105.516 22.6055H116.648L116.824 25.0664L113.836 25.8867L101.004 57.1758H98.3086Z" fill="#508CA4"/>
<path d="M14.9766 59.7461C14.9766 61.4648 15.4844 62.8125 16.5 63.7891C17.5547 64.7656 19.0977 65.4297 21.1289 65.7812L20.543 68.3594C18.043 68.0078 15.9336 67.4219 14.2148 66.6016C12.4961 65.8203 11.1875 64.7852 10.2891 63.4961C9.42969 62.207 9 60.6836 9 58.9258C9 57.4805 9.23438 56.0352 9.70312 54.5898C10.2109 53.1055 10.7188 51.6602 11.2266 50.2539C11.7344 48.8086 11.9883 47.5 11.9883 46.3281C11.9883 45.3516 11.7734 44.5508 11.3438 43.9258C10.9531 43.2617 10.3086 42.7539 9.41016 42.4023C8.55078 42.0117 7.37891 41.7969 5.89453 41.7578V38.8281C7.37891 38.75 8.55078 38.5352 9.41016 38.1836C10.3086 37.832 10.9531 37.3438 11.3438 36.7188C11.7734 36.0547 11.9883 35.2344 11.9883 34.2578C11.9883 33.0469 11.7344 31.7383 11.2266 30.332C10.7188 28.9258 10.2109 27.5 9.70312 26.0547C9.23438 24.5703 9 23.1055 9 21.6602C9 19.8633 9.42969 18.3398 10.2891 17.0898C11.1875 15.8008 12.4961 14.7656 14.2148 13.9844C15.9336 13.1641 18.043 12.5781 20.543 12.2266L21.1289 14.8047C19.0977 15.1562 17.5547 15.8203 16.5 16.7969C15.4844 17.7344 14.9766 19.082 14.9766 20.8398C14.9766 22.2461 15.1719 23.5938 15.5625 24.8828C15.9531 26.1328 16.3438 27.4219 16.7344 28.75C17.1641 30.0781 17.3789 31.5234 17.3789 33.0859C17.3789 35.0781 16.7539 36.7383 15.5039 38.0664C14.2539 39.3555 12.418 40.1562 9.99609 40.4688V39.6484C12.418 40 14.2539 40.8984 15.5039 42.3438C16.7539 43.75 17.3789 45.4688 17.3789 47.5C17.3789 49.0625 17.1641 50.5078 16.7344 51.8359C16.3438 53.1641 15.9531 54.4531 15.5625 55.7031C15.1719 56.9922 14.9766 58.3398 14.9766 59.7461Z" fill="#374B4A"/>
<path d="M126.168 59.7461C126.168 58.3398 125.953 56.9922 125.523 55.7031C125.133 54.4531 124.742 53.1641 124.352 51.8359C123.961 50.5078 123.766 49.0625 123.766 47.5C123.766 45.4688 124.391 43.75 125.641 42.3438C126.891 40.8984 128.727 40 131.148 39.6484V40.4688C128.727 40.1562 126.891 39.3555 125.641 38.0664C124.391 36.7383 123.766 35.0781 123.766 33.0859C123.766 31.5234 123.961 30.0781 124.352 28.75C124.742 27.4219 125.133 26.1328 125.523 24.8828C125.953 23.5938 126.168 22.2461 126.168 20.8398C126.168 19.082 125.641 17.7344 124.586 16.7969C123.57 15.8203 122.047 15.1562 120.016 14.8047L120.602 12.2266C123.102 12.5781 125.211 13.1641 126.93 13.9844C128.648 14.7656 129.938 15.8008 130.797 17.0898C131.695 18.3398 132.145 19.8633 132.145 21.6602C132.145 23.1055 131.891 24.5703 131.383 26.0547C130.875 27.5 130.367 28.9258 129.859 30.332C129.352 31.7383 129.098 33.0469 129.098 34.2578C129.098 35.2344 129.293 36.0547 129.684 36.7188C130.113 37.3438 130.777 37.832 131.676 38.1836C132.613 38.5352 133.805 38.75 135.25 38.8281V41.7578C133.805 41.7969 132.613 42.0117 131.676 42.4023C130.777 42.7539 130.113 43.2617 129.684 43.9258C129.293 44.5508 129.098 45.3516 129.098 46.3281C129.098 47.5 129.352 48.8086 129.859 50.2539C130.367 51.6602 130.875 53.1055 131.383 54.5898C131.891 56.0352 132.145 57.4805 132.145 58.9258C132.145 60.6836 131.695 62.207 130.797 63.4961C129.938 64.7852 128.648 65.8203 126.93 66.6016C125.211 67.4219 123.102 68.0078 120.602 68.3594L120.016 65.7812C122.047 65.4297 123.57 64.7656 124.586 63.7891C125.641 62.8125 126.168 61.4648 126.168 59.7461Z" fill="#374B4A"/>
</svg>
